<?xml version="1.0" encoding="UTF-8"?>
<svg id="weiss" xmlns="http://www.w3.org/2000/svg" viewBox="0 0 99.56 57.98">
  <defs>
    <style>
      .cls-1 {
        fill: #fff;
        stroke-width: 0px;
      }
    </style>
  </defs>
  <g>
    <path class="cls-1" d="M33.45,57.78h-3.52v-11.52l-9.82,10.48c-.7.74-1.94,1.25-3.41,1.25s-2.71-.51-3.41-1.25l-9.78-10.48v11.52H0v-10.5c0-1.39,1.76-2.5,3.96-2.5,1.5,0,2.75.53,3.48,1.3l9.27,9.95,9.31-9.95c.7-.77,1.98-1.3,3.44-1.3,2.2,0,3.96,1.11,3.96,2.5l.04,10.5Z"/>
    <path class="cls-1" d="M64.22,49.01c0,1.92-2.45,3.48-5.5,3.48h-17.66v3.06h22.68v2.23h-26.19v-4.03c0-1.92,2.45-3.48,5.5-3.48h17.66v-3.06h-23.15v-2.23h21.18c3.04,0,5.5,1.55,5.5,3.48v.56Z"/>
    <path class="cls-1" d="M80.15,53.3l-9.05,4.48h-5.75l13.04-6.45-12.86-6.35h5.79l8.83,4.38c.92.46,1.58,1.16,1.58,1.97s-.66,1.51-1.58,1.97ZM99.56,57.78h-5.79l-9.01-4.48c-.92-.46-1.58-1.16-1.58-1.97s.66-1.51,1.58-1.97l8.83-4.38h5.75l-12.86,6.35,13.08,6.45Z"/>
  </g>
  <g>
    <path class="cls-1" d="M99.56,37.26h-16.85l-26.23-13.03c-2.67-1.35-4.59-3.38-4.59-5.74s1.92-4.39,4.59-5.74L82.17,0h16.74l-37.43,18.49,38.07,18.76Z"/>
    <path class="cls-1" d="M43.08,24.23l-26.34,13.03H0l37.96-18.76L.53,0h16.85l25.7,12.76c2.67,1.35,4.59,3.38,4.59,5.74s-1.92,4.39-4.59,5.74Z"/>
  </g>
</svg>