<svg width="2635" height="2012" xmlns="http://www.w3.org/2000/svg" xmlns:xlink="http://www.w3.org/1999/xlink" xml:space="preserve" overflow="hidden"><g transform="translate(-880 -320)"><g><rect x="885.5" y="327.5" width="2626" height="1999" stroke="#7F7F7F" stroke-width="6.875" stroke-linecap="butt" stroke-linejoin="miter" stroke-miterlimit="8" stroke-opacity="1" fill="#FFFFFF" fill-opacity="1"/><rect x="2013" y="709" width="374" height="1057" stroke="#FF0000" stroke-width="13.75" stroke-linecap="butt" stroke-linejoin="miter" stroke-miterlimit="8" stroke-opacity="1" fill="#FF0000" fill-opacity="0.4"/><rect x="1014" y="709" width="2372" height="1057" stroke="#4EA72E" stroke-width="13.75" stroke-linecap="butt" stroke-linejoin="miter" stroke-miterlimit="8" stroke-opacity="1" fill="none"/><path d="M2422.5 799.5 2887 799.5C3143.54 799.5 3351.5 995.823 3351.5 1238 3351.5 1480.18 3143.54 1676.5 2887 1676.5L2422.5 1676.5Z" stroke="#000000" stroke-width="6.875" stroke-linecap="butt" stroke-linejoin="miter" stroke-miterlimit="8" stroke-opacity="1" fill="none" fill-rule="evenodd"/><path d="M1978.5 1676.5 1514 1676.5C1257.46 1676.5 1049.5 1480.18 1049.5 1238 1049.5 995.823 1257.46 799.5 1514 799.5L1978.5 799.5Z" stroke="#000000" stroke-width="6.875" stroke-linecap="butt" stroke-linejoin="miter" stroke-miterlimit="8" stroke-opacity="1" fill="none" fill-rule="evenodd"/><path d="M2208.81 553.063 2208.81 866.533 2188.19 866.533 2188.19 553.063ZM2167.56 563.375 2198.5 501.5 2229.44 563.375ZM2229.44 856.221 2198.5 918.096 2167.56 856.221Z" fill="#156082" fill-rule="nonzero" fill-opacity="1"/><path d="M2210.81 1593.06 2210.81 1906.53 2190.19 1906.53 2190.19 1593.06ZM2169.56 1603.37 2200.5 1541.5 2231.44 1603.37ZM2231.44 1896.22 2200.5 1958.1 2169.56 1896.22Z" fill="#156082" fill-rule="nonzero" fill-opacity="1"/><path d="M1501.5 1238C1501.5 1228.89 1509.11 1221.5 1518.5 1221.5 1527.89 1221.5 1535.5 1228.89 1535.5 1238 1535.5 1247.11 1527.89 1254.5 1518.5 1254.5 1509.11 1254.5 1501.5 1247.11 1501.5 1238Z" stroke="#000000" stroke-width="6.875" stroke-linecap="butt" stroke-linejoin="miter" stroke-miterlimit="8" stroke-opacity="1" fill="#000000" fill-rule="evenodd" fill-opacity="1"/><path d="M2863.5 1238C2863.5 1228.89 2871.11 1221.5 2880.5 1221.5 2889.89 1221.5 2897.5 1228.89 2897.5 1238 2897.5 1247.11 2889.89 1254.5 2880.5 1254.5 2871.11 1254.5 2863.5 1247.11 2863.5 1238Z" stroke="#000000" stroke-width="6.875" stroke-linecap="butt" stroke-linejoin="miter" stroke-miterlimit="8" stroke-opacity="1" fill="#000000" fill-rule="evenodd" fill-opacity="1"/><text fill="#000000" fill-opacity="1" font-family="Aptos,Aptos_MSFontService,sans-serif" font-style="normal" font-variant="normal" font-weight="400" font-stretch="normal" font-size="50" text-anchor="start" direction="ltr" writing-mode="lr-tb" unicode-bidi="normal" text-decoration="none" transform="matrix(1 0 0 1 1382.25 1319)">LHP 1</text><text fill="#000000" fill-opacity="1" font-family="Aptos,Aptos_MSFontService,sans-serif" font-style="normal" font-variant="normal" font-weight="400" font-stretch="normal" font-size="50" text-anchor="start" direction="ltr" writing-mode="lr-tb" unicode-bidi="normal" text-decoration="none" transform="matrix(1 0 0 1 2743.84 1319)">LHP 2</text><rect x="1014" y="2109" width="65.9999" height="66" stroke="#4EA72E" stroke-width="13.75" stroke-linecap="butt" stroke-linejoin="miter" stroke-miterlimit="8" stroke-opacity="1" fill="none"/><text fill="#000000" fill-opacity="1" font-family="Aptos,Aptos_MSFontService,sans-serif" font-style="normal" font-variant="normal" font-weight="400" font-stretch="normal" font-size="50" text-anchor="start" direction="ltr" writing-mode="lr-tb" unicode-bidi="normal" text-decoration="none" transform="matrix(1 0 0 1 1118.42 2162)">LHS Footprint</text><rect x="1501" y="2111" width="66" height="66" stroke="#FF0000" stroke-width="13.75" stroke-linecap="butt" stroke-linejoin="miter" stroke-miterlimit="8" stroke-opacity="1" fill="#FF0000" fill-opacity="0.4"/><text fill="#000000" fill-opacity="1" font-family="Aptos,Aptos_MSFontService,sans-serif" font-style="normal" font-variant="normal" font-weight="400" font-stretch="normal" font-size="50" text-anchor="start" direction="ltr" writing-mode="lr-tb" unicode-bidi="normal" text-decoration="none" transform="matrix(1 0 0 1 1606.23 2164)">LHS Interaction Area</text><path d="M51.5625-10.3124 119.289-10.3122 119.289 10.3128 51.5625 10.3126ZM61.8749 30.9376 0 0 61.8751-30.9374ZM108.977-30.9373 170.852 0.000360892 108.976 30.9377Z" fill="#156082" fill-rule="nonzero" fill-opacity="1" transform="matrix(-1 0 0 1 2283.35 2148.5)"/><text fill="#000000" fill-opacity="1" font-family="Aptos,Aptos_MSFontService,sans-serif" font-style="normal" font-variant="normal" font-weight="400" font-stretch="normal" font-size="50" text-anchor="start" direction="ltr" writing-mode="lr-tb" unicode-bidi="normal" text-decoration="none" transform="matrix(1 0 0 1 2316.09 2162)">LHS Entry and Exit</text></g></g></svg>