<svg width="2649" height="2012" xmlns="http://www.w3.org/2000/svg" xmlns:xlink="http://www.w3.org/1999/xlink" xml:space="preserve" overflow="hidden"><g transform="translate(-880 -320)"><g><rect x="885.5" y="327.5" width="2626" height="1999" stroke="#7F7F7F" stroke-width="6.875" stroke-linecap="butt" stroke-linejoin="miter" stroke-miterlimit="8" stroke-opacity="1" fill="#FFFFFF" fill-opacity="1"/><path d="M1252.5 763.5 1252.5 631C1252.5 557.822 1345.18 498.5 1459.5 498.5 1573.82 498.5 1666.5 557.822 1666.5 631L1666.5 763.5Z" stroke="#000000" stroke-width="6.875" stroke-linecap="butt" stroke-linejoin="miter" stroke-miterlimit="8" stroke-opacity="1" fill="none" fill-rule="evenodd"/><path d="M1444.5 631.5C1444.5 623.216 1451.22 616.5 1459.5 616.5 1467.78 616.5 1474.5 623.216 1474.5 631.5 1474.5 639.784 1467.78 646.5 1459.5 646.5 1451.22 646.5 1444.5 639.784 1444.5 631.5Z" stroke="#000000" stroke-width="6.875" stroke-linecap="butt" stroke-linejoin="miter" stroke-miterlimit="8" stroke-opacity="1" fill="#000000" fill-rule="evenodd" fill-opacity="1"/><text fill="#000000" fill-opacity="1" font-family="Aptos,Aptos_MSFontService,sans-serif" font-style="normal" font-variant="normal" font-weight="400" font-stretch="normal" font-size="50" text-anchor="start" direction="ltr" writing-mode="lr-tb" unicode-bidi="normal" text-decoration="none" transform="matrix(1 0 0 1 1326.41 694)">LHP 1</text><rect x="1014" y="2109" width="65.9999" height="66" stroke="#4EA72E" stroke-width="13.75" stroke-linecap="butt" stroke-linejoin="miter" stroke-miterlimit="8" stroke-opacity="1" fill="none"/><text fill="#000000" fill-opacity="1" font-family="Aptos,Aptos_MSFontService,sans-serif" font-style="normal" font-variant="normal" font-weight="400" font-stretch="normal" font-size="50" text-anchor="start" direction="ltr" writing-mode="lr-tb" unicode-bidi="normal" text-decoration="none" transform="matrix(1 0 0 1 1118.42 2162)">LHS Footprint</text><rect x="1501" y="2111" width="66" height="66" stroke="#FF0000" stroke-width="13.75" stroke-linecap="butt" stroke-linejoin="miter" stroke-miterlimit="8" stroke-opacity="1" fill="#FF0000" fill-opacity="0.4"/><text fill="#000000" fill-opacity="1" font-family="Aptos,Aptos_MSFontService,sans-serif" font-style="normal" font-variant="normal" font-weight="400" font-stretch="normal" font-size="50" text-anchor="start" direction="ltr" writing-mode="lr-tb" unicode-bidi="normal" text-decoration="none" transform="matrix(1 0 0 1 1606.23 2164)">LHS Interaction Area</text><path d="M51.5625-10.3124 119.289-10.3122 119.289 10.3128 51.5625 10.3126ZM61.8749 30.9376 0 0 61.8751-30.9374ZM108.977-30.9373 170.852 0.000360892 108.976 30.9377Z" fill="#156082" fill-rule="nonzero" fill-opacity="1" transform="matrix(-1 0 0 1 3009.35 2148.5)"/><text fill="#000000" fill-opacity="1" font-family="Aptos,Aptos_MSFontService,sans-serif" font-style="normal" font-variant="normal" font-weight="400" font-stretch="normal" font-size="50" text-anchor="start" direction="ltr" writing-mode="lr-tb" unicode-bidi="normal" text-decoration="none" transform="matrix(1 0 0 1 3041.77 2162)">LHS Entry and Exit</text><path d="M1132 446 3268 446 3268 1106 2555.64 1106 2555.64 1766 1844.36 1766 1844.36 1106 1132 1106Z" stroke="#4EA72E" stroke-width="13.75" stroke-linecap="butt" stroke-linejoin="miter" stroke-miterlimit="8" stroke-opacity="1" fill="none" fill-rule="evenodd"/><path d="M2734.5 763.5 2734.5 631C2734.5 557.822 2827.18 498.5 2941.5 498.5 3055.82 498.5 3148.5 557.822 3148.5 631L3148.5 763.5Z" stroke="#000000" stroke-width="6.875" stroke-linecap="butt" stroke-linejoin="miter" stroke-miterlimit="8" stroke-opacity="1" fill="none" fill-rule="evenodd"/><path d="M2926.5 631.5C2926.5 623.216 2933.22 616.5 2941.5 616.5 2949.78 616.5 2956.5 623.216 2956.5 631.5 2956.5 639.784 2949.78 646.5 2941.5 646.5 2933.22 646.5 2926.5 639.784 2926.5 631.5Z" stroke="#000000" stroke-width="6.875" stroke-linecap="butt" stroke-linejoin="miter" stroke-miterlimit="8" stroke-opacity="1" fill="#000000" fill-rule="evenodd" fill-opacity="1"/><text fill="#000000" fill-opacity="1" font-family="Aptos,Aptos_MSFontService,sans-serif" font-style="normal" font-variant="normal" font-weight="400" font-stretch="normal" font-size="50" text-anchor="start" direction="ltr" writing-mode="lr-tb" unicode-bidi="normal" text-decoration="none" transform="matrix(1 0 0 1 2807.91 694)">LHP 2</text><path d="M1678 764 2734 764 2734 1006.45 2491.56 1006.45 2491.56 1766 1935.81 1766 1935.81 1006.45 1678 1006.45Z" stroke="#A02B93" stroke-width="13.75" stroke-linecap="butt" stroke-linejoin="miter" stroke-miterlimit="8" stroke-opacity="1" fill="#A02B93" fill-rule="evenodd" fill-opacity="0.4"/><rect x="2734" y="764" width="414" height="242" stroke="#FF0000" stroke-width="13.75" stroke-linecap="butt" stroke-linejoin="miter" stroke-miterlimit="8" stroke-opacity="1" fill="#FF0000" fill-opacity="0.4"/><rect x="1252" y="764" width="414" height="242" stroke="#FF0000" stroke-width="13.75" stroke-linecap="butt" stroke-linejoin="miter" stroke-miterlimit="8" stroke-opacity="1" fill="#FF0000" fill-opacity="0.4"/><rect x="2134" y="2109" width="66" height="66" stroke="#A02B93" stroke-width="13.75" stroke-linecap="butt" stroke-linejoin="miter" stroke-miterlimit="8" stroke-opacity="1" fill="#A02B93" fill-opacity="0.4"/><text fill="#000000" fill-opacity="1" font-family="Aptos,Aptos_MSFontService,sans-serif" font-style="normal" font-variant="normal" font-weight="400" font-stretch="normal" font-size="50" text-anchor="start" direction="ltr" writing-mode="lr-tb" unicode-bidi="normal" text-decoration="none" transform="matrix(1 0 0 1 2238.38 2162)">Traffic Management Area</text><path d="M2237.81 1610.06 2237.81 1923.53 2217.19 1923.53 2217.19 1610.06ZM2196.56 1620.38 2227.5 1558.5 2258.44 1620.38ZM2258.44 1913.22 2227.5 1975.1 2196.56 1913.22Z" fill="#156082" fill-rule="nonzero" fill-opacity="1"/></g></g></svg>