<svg width="1123" height="1531" xmlns="http://www.w3.org/2000/svg" xmlns:xlink="http://www.w3.org/1999/xlink" xml:space="preserve" overflow="hidden"><defs><clipPath id="clip0"><rect x="453" y="554" width="1123" height="1531"/></clipPath><clipPath id="clip1"><rect x="453" y="554" width="1123" height="1531"/></clipPath></defs><g clip-path="url(#clip0)" transform="translate(-453 -554)"><g clip-path="url(#clip1)"><rect x="458" y="558" width="1118" height="1526" fill="#FFFFFF" fill-opacity="1"/><rect x="523.5" y="613.5" width="990" height="859" stroke="#042433" stroke-width="6.875" stroke-linecap="butt" stroke-linejoin="miter" stroke-miterlimit="8" stroke-opacity="1" fill="none"/><rect x="605.5" y="679.5" width="825" height="429" stroke="#E97132" stroke-width="6.875" stroke-linecap="butt" stroke-linejoin="miter" stroke-miterlimit="8" stroke-opacity="1" fill="none"/><rect x="1081.5" y="891.5" width="330" height="198" stroke="#4EA72E" stroke-width="6.875" stroke-linecap="butt" stroke-linejoin="miter" stroke-miterlimit="8" stroke-opacity="0.490196" fill="#D9F2D0" fill-opacity="0.541176"/><rect x="790.5" y="1222.5" width="429" height="561" stroke="#104862" stroke-width="6.875" stroke-linecap="butt" stroke-linejoin="miter" stroke-miterlimit="8" stroke-opacity="1" fill="#D9D9D9" fill-opacity="1"/><path d="M1259.5 1257.5 1259.5 1403.5 1239.5 1423.5 1219.5 1423.5 1219.5 1237.5 1239.5 1237.5Z" stroke="#104862" stroke-width="6.875" stroke-linecap="butt" stroke-linejoin="miter" stroke-miterlimit="8" stroke-opacity="1" fill="#104862" fill-rule="evenodd" fill-opacity="1"/><path d="M1259.5 1601.5 1259.5 1748.5 1239.5 1768.5 1219.5 1768.5 1219.5 1581.5 1239.5 1581.5Z" stroke="#104862" stroke-width="6.875" stroke-linecap="butt" stroke-linejoin="miter" stroke-miterlimit="8" stroke-opacity="1" fill="#104862" fill-rule="evenodd" fill-opacity="1"/><path d="M747.5 1404.5 747.5 1257.5 767.5 1237.5 787.5 1237.5 787.5 1424.5 767.5 1424.5Z" stroke="#104862" stroke-width="6.875" stroke-linecap="butt" stroke-linejoin="miter" stroke-miterlimit="8" stroke-opacity="1" fill="#104862" fill-rule="evenodd" fill-opacity="1"/><path d="M749.5 1748 749.5 1602 770 1581.5 790.5 1581.5 790.5 1768.5 770 1768.5Z" stroke="#104862" stroke-width="6.875" stroke-linecap="butt" stroke-linejoin="miter" stroke-miterlimit="8" stroke-opacity="1" fill="#104862" fill-rule="evenodd" fill-opacity="1"/><path d="M3.4375-1.50372e-05 3.43776 59.5833-3.43724 59.5834-3.4375 1.50372e-05ZM13.7502 54.9999 0.000360892 82.5-13.7498 55.0001Z" fill="#4EA72E" fill-rule="nonzero" fill-opacity="0.490196" transform="matrix(1 0 0 -1 1246.5 989)"/><path d="M1243.5 987.062 1303.08 987.063 1303.08 993.938 1243.5 993.937ZM1298.5 976.75 1326 990.5 1298.5 1004.25Z" fill="#4EA72E" fill-rule="nonzero" fill-opacity="0.490196"/><text fill="#4EA72E" fill-opacity="0.54902" font-family="Aptos,Aptos_MSFontService,sans-serif" font-style="normal" font-variant="normal" font-weight="400" font-stretch="normal" font-size="37" text-anchor="start" direction="ltr" writing-mode="lr-tb" unicode-bidi="normal" text-decoration="none" transform="matrix(1 0 0 1 1213.32 923)">x</text><text fill="#4EA72E" fill-opacity="0.54902" font-family="Aptos,Aptos_MSFontService,sans-serif" font-style="normal" font-variant="normal" font-weight="400" font-stretch="normal" font-size="37" text-anchor="start" direction="ltr" writing-mode="lr-tb" unicode-bidi="normal" text-decoration="none" transform="matrix(1 0 0 1 1329.91 1016)">y</text><rect x="839.5" y="1246.5" width="330" height="198" stroke="#4EA72E" stroke-width="6.875" stroke-linecap="butt" stroke-linejoin="miter" stroke-miterlimit="8" stroke-opacity="1" fill="#D9F2D0" fill-opacity="1"/><path d="M3.4375-1.50372e-05 3.43776 59.5833-3.43724 59.5834-3.4375 1.50372e-05ZM13.7502 54.9999 0.000360892 82.5-13.7498 55.0001Z" fill="#4EA72E" fill-rule="nonzero" fill-opacity="1" transform="matrix(1 0 0 -1 1004.5 1344)"/><path d="M1001.5 1342.06 1061.08 1342.06 1061.08 1348.94 1001.5 1348.94ZM1056.5 1331.75 1084 1345.5 1056.5 1359.25Z" fill="#4EA72E" fill-rule="nonzero" fill-opacity="1"/><text fill="#4EA72E" fill-opacity="1" font-family="Aptos,Aptos_MSFontService,sans-serif" font-style="normal" font-variant="normal" font-weight="400" font-stretch="normal" font-size="37" text-anchor="start" direction="ltr" writing-mode="lr-tb" unicode-bidi="normal" text-decoration="none" transform="matrix(1 0 0 1 971.308 1279)">y</text><text fill="#4EA72E" fill-opacity="1" font-family="Aptos,Aptos_MSFontService,sans-serif" font-style="normal" font-variant="normal" font-weight="400" font-stretch="normal" font-size="37" text-anchor="start" direction="ltr" writing-mode="lr-tb" unicode-bidi="normal" text-decoration="none" transform="matrix(1 0 0 1 1088.47 1371)">x</text><path d="M1022.94 891.5 1022.94 951.083 1016.06 951.083 1016.06 891.5ZM1033.25 946.5 1019.5 974 1005.75 946.5Z" fill="#E97132" fill-rule="nonzero" fill-opacity="1"/><path d="M1.50372e-05-3.4375 59.5834-3.43724 59.5833 3.43776-1.50372e-05 3.4375ZM55.0001-13.7498 82.5 0.000360892 54.9999 13.7502Z" fill="#E97132" fill-rule="nonzero" fill-opacity="1" transform="matrix(-1 0 0 1 1022 895.5)"/><text fill="#E97132" fill-opacity="1" font-family="Aptos,Aptos_MSFontService,sans-serif" font-style="normal" font-variant="normal" font-weight="400" font-stretch="normal" font-size="37" text-anchor="start" direction="ltr" writing-mode="lr-tb" unicode-bidi="normal" text-decoration="none" transform="matrix(1 0 0 1 920.355 929)">x</text><text fill="#E97132" fill-opacity="1" font-family="Aptos,Aptos_MSFontService,sans-serif" font-style="normal" font-variant="normal" font-weight="400" font-stretch="normal" font-size="37" text-anchor="start" direction="ltr" writing-mode="lr-tb" unicode-bidi="normal" text-decoration="none" transform="matrix(1 0 0 1 986.16 983)">y</text><path d="M3.4375-1.50372e-05 3.43776 59.5833-3.43724 59.5834-3.4375 1.50372e-05ZM13.7502 54.9999 0.000360892 82.5-13.7498 55.0001Z" fill="#104862" fill-rule="nonzero" fill-opacity="1" transform="matrix(1 0 0 -1 1021.5 1585)"/><path d="M1.50037e-05-3.4375 59.7674-3.43724 59.7674 3.43776-1.50037e-05 3.4375ZM55.1841-13.7498 82.6841 0.000360892 55.184 13.7502Z" fill="#104862" fill-rule="nonzero" fill-opacity="1" transform="matrix(-1 0 0 1 1023.18 1581.5)"/><text fill="#104862" fill-opacity="1" font-family="Aptos,Aptos_MSFontService,sans-serif" font-style="normal" font-variant="normal" font-weight="400" font-stretch="normal" font-size="37" text-anchor="start" direction="ltr" writing-mode="lr-tb" unicode-bidi="normal" text-decoration="none" transform="matrix(1 0 0 1 988.739 1514)">x</text><text fill="#104862" fill-opacity="1" font-family="Aptos,Aptos_MSFontService,sans-serif" font-style="normal" font-variant="normal" font-weight="400" font-stretch="normal" font-size="37" text-anchor="start" direction="ltr" writing-mode="lr-tb" unicode-bidi="normal" text-decoration="none" transform="matrix(1 0 0 1 914.936 1611)">y</text><rect x="523.5" y="1871.5" width="48.9998" height="50.0002" stroke="#000000" stroke-width="6.875" stroke-linecap="butt" stroke-linejoin="miter" stroke-miterlimit="8" stroke-opacity="1" fill="none"/><text fill="#000000" fill-opacity="1" font-family="Aptos,Aptos_MSFontService,sans-serif" font-style="normal" font-variant="normal" font-weight="400" font-stretch="normal" font-size="37" text-anchor="start" direction="ltr" writing-mode="lr-tb" unicode-bidi="normal" text-decoration="none" transform="matrix(1 0 0 1 605.632 1908)">LHS</text><rect x="1012.5" y="1871.5" width="50.0002" height="50.0002" stroke="#E97132" stroke-width="6.875" stroke-linecap="butt" stroke-linejoin="miter" stroke-miterlimit="8" stroke-opacity="1" fill="none"/><text fill="#000000" fill-opacity="1" font-family="Aptos,Aptos_MSFontService,sans-serif" font-style="normal" font-variant="normal" font-weight="400" font-stretch="normal" font-size="37" text-anchor="start" direction="ltr" writing-mode="lr-tb" unicode-bidi="normal" text-decoration="none" transform="matrix(1 0 0 1 1095.38 1908)">LHP (and orientation)</text><rect x="523.5" y="1987.5" width="48.9998" height="49.9999" stroke="#104862" stroke-width="6.875" stroke-linecap="butt" stroke-linejoin="miter" stroke-miterlimit="8" stroke-opacity="1" fill="#D9D9D9" fill-opacity="1"/><text fill="#000000" fill-opacity="1" font-family="Aptos,Aptos_MSFontService,sans-serif" font-style="normal" font-variant="normal" font-weight="400" font-stretch="normal" font-size="37" text-anchor="start" direction="ltr" writing-mode="lr-tb" unicode-bidi="normal" text-decoration="none" transform="matrix(1 0 0 1 605.632 2024)">MR (and orientation)</text><rect x="1012.5" y="1987.5" width="50.0002" height="49.9999" stroke="#4EA72E" stroke-width="6.875" stroke-linecap="butt" stroke-linejoin="miter" stroke-miterlimit="8" stroke-opacity="1" fill="#D9F2D0" fill-opacity="1"/><text fill="#000000" fill-opacity="1" font-family="Aptos,Aptos_MSFontService,sans-serif" font-style="normal" font-variant="normal" font-weight="400" font-stretch="normal" font-size="37" text-anchor="start" direction="ltr" writing-mode="lr-tb" unicode-bidi="normal" text-decoration="none" transform="matrix(1 0 0 1 1095.38 2023)">LHU (and orientation)</text><path d="M3.12001-1.4429 14.6632 23.5171 8.42323 26.4029-3.12001 1.4429ZM23.3207 42.2372 34.8639 67.1972 28.6239 70.083 17.0807 45.123ZM43.5213 85.9172 55.0645 110.877 48.8245 113.763 37.2813 88.8031ZM63.722 129.597 75.2652 154.557 69.0252 157.443 57.482 132.483ZM83.9226 173.277 94.291 195.697 88.051 198.583 77.6826 176.163ZM101.727 187.208 100.79 217.94 76.7671 198.752Z" fill="#196B24" fill-rule="nonzero" fill-opacity="1" transform="matrix(1 0 0 -1 1083.5 1262.44)"/></g></g></svg>